<svg opacity="0.5" width="42" height="42" viewBox="0 0 42 42" fill="none" xmlns="http://www.w3.org/2000/svg">
<g clip-path="url(#clip0_207_2)">
<path d="M20.3 41.006L25.466 35.833C22.9913 33.1978 21.2154 29.9852 20.3 26.488C19.3857 29.9877 17.6097 33.2028 15.134 35.84L20.293 41.006H20.3ZM21.28 41.993L21.287 42H19.299L14.14 36.834C11.5028 39.3097 8.28771 41.0857 4.788 42H0V41.286C4.89935 41.1242 9.57329 39.189 13.153 35.84L0 22.687V19.299L13.146 6.153C9.56705 2.80816 4.89599 0.875563 0 0.714V0H4.788C8.28522 0.915376 11.4978 2.69131 14.133 5.166L19.299 0H21.287L26.46 5.166C29.0972 2.6903 32.3123 0.914299 35.812 0L42 0V19.306V19.299V42H35.812C32.3084 41.0827 29.0907 39.3018 26.453 36.82L21.28 42V41.993ZM20.3 0.987L15.12 6.153C17.6018 8.79067 19.3827 12.0084 20.3 15.512C21.2143 12.0123 22.9903 8.7972 25.466 6.16L20.3 0.98V0.987ZM40.6 0.7C35.6964 0.863938 31.0194 2.80437 27.44 6.16L40.6 19.306V0.714V0.7ZM26.46 7.14C23.1095 10.7215 21.1741 15.3982 21.014 20.3H39.606L26.46 7.147V7.14ZM21.014 21.7C21.1739 26.5984 23.1066 31.2723 26.453 34.853L39.606 21.7H21.014ZM27.44 35.84C31.0194 39.1956 35.6964 41.1361 40.6 41.3V22.68L27.44 35.833V35.84ZM14.14 34.86C17.4905 31.2785 19.4259 26.6018 19.586 21.7H0.987L14.147 34.86H14.14ZM19.586 20.3C19.4259 15.3982 17.4905 10.7215 14.14 7.14L0.987 20.3H19.586Z" fill="#F0D6B5"/>
</g>
<defs>
<clipPath id="clip0_207_2">
<rect width="42" height="42" fill="white"/>
</clipPath>
</defs>
</svg>
