<svg width="42" height="42" viewBox="0 0 42 42" fill="none" xmlns="http://www.w3.org/2000/svg">
<g clip-path="url(#clip0_46_820)">
<path fill-rule="evenodd" clip-rule="evenodd" d="M42 11.5C39.7915 11.5 38 9.708 38 7.501V4H34.499C32.29 4 30.5 2.21 30.5 0H11.5C11.5 2.2085 9.708 4 7.501 4H4V7.501C4 9.71 2.21 11.5 0 11.5V30.5C2.2085 30.5 4 32.292 4 34.499V38H7.501C9.71 38 11.5 39.79 11.5 42H30.5C30.5 39.7915 32.292 38 34.499 38H38V34.499C38 32.29 39.79 30.5 42 30.5V11.5ZM29.525 41.5H21.5V33.475C24.027 33.225 26 31.093 26 28.501V26H28.501C31.091 26 33.224 24.0265 33.476 21.5H41.5V29.525C38.973 29.775 37 31.907 37 34.499V37H34.499C31.909 37 29.776 38.9735 29.524 41.5H29.525ZM12.475 41.5H20.5V33.475C17.9735 33.224 16 31.091 16 28.501V26H13.499C10.907 26 8.7755 24.027 8.524 21.5H0.5V29.525C3.0265 29.776 5 31.909 5 34.499V37H7.501C10.093 37 12.2245 38.973 12.476 41.5H12.475ZM12.475 0.5H20.5V8.525C17.973 8.775 16 10.907 16 13.499V16H13.499C10.909 16 8.776 17.9735 8.524 20.5H0.5V12.475C3.027 12.225 5 10.093 5 7.501V5H7.501C10.091 5 12.224 3.0265 12.476 0.5H12.475ZM29.525 0.5H21.5V8.525C24.0265 8.776 26 10.909 26 13.499V16H28.501C31.093 16 33.2245 17.973 33.476 20.5H41.5V12.475C38.9735 12.224 37 10.091 37 7.501V5H34.499C31.907 5 29.7755 3.027 29.524 0.5H29.525ZM25 25V28.501C25 30.71 23.21 32.5 21 32.5C18.7915 32.5 17 30.708 17 28.501V25H13.499C11.29 25 9.5 23.21 9.5 21C9.5 18.7915 11.292 17 13.499 17H17V13.499C17 11.29 18.79 9.5 21 9.5C23.2085 9.5 25 11.292 25 13.499V17H28.501C30.71 17 32.5 18.79 32.5 21C32.5 23.2085 30.708 25 28.501 25H25Z" fill="#F0D6B5"/>
</g>
<defs>
<clipPath id="clip0_46_820">
<rect width="42" height="42" fill="white"/>
</clipPath>
</defs>
</svg>
